# xmcd
# 
# Track frame offsets:
#     150
#     19144
#     40896
#     48091
#     67086
# 
# Disc length: 1181
# 
# Revision: 0
# Processed by: cddbd v1.5.2PL0 Copyright (c) Steve Scherf et al.
# Submitted via: fre:ac v1.0.17
# 
DISCID=3c049b05
DTITLE=井口裕香 - Grow Slowly
DYEAR=2013
DGENRE=Anime
TTITLE0=Grow Slowly
TTITLE1=Everything
TTITLE2=Grow Slowly（TV-size）
TTITLE3=Grow Slowly（instrumental）
TTITLE4=Everything（instrumental）
EXTD=
EXTT0=
EXTT1=
EXTT2=
EXTT3=
EXTT4=
PLAYORDER=
